<svg width="13" height="13" viewBox="0 0 13 13" fill="none" xmlns="http://www.w3.org/2000/svg">
<path d="M7.93966 6.00017L12.7997 1.14017C12.9089 1.01264 12.9659 0.848589 12.9595 0.680805C12.953 0.513021 12.8834 0.353862 12.7647 0.235132C12.646 0.116403 12.4868 0.0468473 12.319 0.0403665C12.1512 0.0338857 11.9872 0.0909567 11.8597 0.200174L6.99966 5.06017L2.13966 0.193508C2.01212 0.0842899 1.84807 0.0272195 1.68029 0.0337003C1.5125 0.0401811 1.35334 0.109736 1.23461 0.228465C1.11589 0.347195 1.04633 0.506354 1.03985 0.674138C1.03337 0.841922 1.09044 1.00597 1.19966 1.13351L6.05966 6.00017L1.19299 10.8602C1.1232 10.9199 1.06652 10.9935 1.02651 11.0762C0.986491 11.1589 0.964004 11.249 0.960458 11.3408C0.956911 11.4326 0.972382 11.5242 1.0059 11.6097C1.03941 11.6953 1.09025 11.773 1.15522 11.8379C1.22019 11.9029 1.29789 11.9537 1.38344 11.9873C1.46899 12.0208 1.56055 12.0363 1.65236 12.0327C1.74417 12.0292 1.83426 12.0067 1.91697 11.9667C1.99968 11.9266 2.07323 11.87 2.13299 11.8002L6.99966 6.94017L11.8597 11.8002C11.9872 11.9094 12.1512 11.9665 12.319 11.96C12.4868 11.9535 12.646 11.8839 12.7647 11.7652C12.8834 11.6465 12.953 11.4873 12.9595 11.3195C12.9659 11.1518 12.9089 10.9877 12.7997 10.8602L7.93966 6.00017Z" fill="white"/>
</svg>
