<svg width="17" height="20" viewBox="0 0 17 20" fill="none" xmlns="http://www.w3.org/2000/svg">
<path d="M13.7539 12C14.0493 11.9999 14.3419 12.058 14.6149 12.1709C14.8878 12.2839 15.1359 12.4495 15.3448 12.6584C15.5538 12.8672 15.7195 13.1152 15.8326 13.3881C15.9457 13.6611 16.0039 13.9536 16.0039 14.249V14.824C16.0039 15.718 15.6839 16.584 15.1019 17.262C13.5319 19.096 11.1449 20.001 7.99991 20.001C4.85391 20.001 2.46791 19.096 0.901906 17.261C0.322291 16.5821 0.00387573 15.7187 0.00390647 14.826V14.249C0.00377511 13.9536 0.0618499 13.661 0.174814 13.3881C0.287778 13.1151 0.453417 12.867 0.662269 12.6581C0.871121 12.4492 1.11909 12.2834 1.39202 12.1703C1.66495 12.0572 1.95748 11.999 2.25291 11.999H13.7539V12ZM13.7539 13.5H2.25291C2.15446 13.4999 2.05696 13.5192 1.96597 13.5568C1.87498 13.5943 1.79229 13.6495 1.72264 13.7191C1.65298 13.7886 1.59772 13.8712 1.56002 13.9622C1.52231 14.0531 1.50291 14.1506 1.50291 14.249V14.826C1.50291 15.362 1.69491 15.88 2.04291 16.287C3.29591 17.755 5.26191 18.501 7.99991 18.501C10.7379 18.501 12.7059 17.755 13.9619 16.287C14.3109 15.8795 14.5028 15.3606 14.5029 14.824V14.249C14.503 14.1506 14.4838 14.0531 14.4462 13.9621C14.4086 13.8711 14.3534 13.7884 14.2839 13.7188C14.2143 13.6491 14.1317 13.5938 14.0408 13.5561C13.9498 13.5184 13.8523 13.499 13.7539 13.499V13.5ZM7.99991 0.00402832C9.32599 0.00402832 10.5978 0.530813 11.5354 1.46849C12.4731 2.40618 12.9999 3.67795 12.9999 5.00403C12.9999 6.33011 12.4731 7.60188 11.5354 8.53956C10.5978 9.47724 9.32599 10.004 7.99991 10.004C6.67382 10.004 5.40205 9.47724 4.46437 8.53956C3.52669 7.60188 2.99991 6.33011 2.99991 5.00403C2.99991 3.67795 3.52669 2.40618 4.46437 1.46849C5.40205 0.530813 6.67382 0.00402832 7.99991 0.00402832ZM7.99991 1.50403C7.54028 1.50403 7.08515 1.59456 6.66051 1.77045C6.23587 1.94634 5.85004 2.20415 5.52503 2.52915C5.20003 2.85416 4.94222 3.24 4.76633 3.66464C4.59044 4.08928 4.49991 4.5444 4.49991 5.00403C4.49991 5.46365 4.59044 5.91878 4.76633 6.34342C4.94222 6.76806 5.20003 7.1539 5.52503 7.4789C5.85004 7.80391 6.23587 8.06172 6.66051 8.23761C7.08515 8.4135 7.54028 8.50403 7.99991 8.50403C8.92816 8.50403 9.8184 8.13528 10.4748 7.4789C11.1312 6.82253 11.4999 5.93229 11.4999 5.00403C11.4999 4.07577 11.1312 3.18553 10.4748 2.52915C9.8184 1.87278 8.92816 1.50403 7.99991 1.50403Z" fill="white"/>
</svg>
