<svg width="79" height="30" viewBox="0 0 79 30" fill="none" xmlns="http://www.w3.org/2000/svg">
<path d="M65.1435 29.9821C68.7598 29.9821 70.4618 28.6971 71.9485 24.8019L78.4615 7.78893H74.6906L70.323 20.9512H70.2464L65.8789 7.80676H62.001L68.2844 23.9997L67.9478 24.9846C67.7101 26.3944 66.3511 27.4002 64.8213 27.2962C64.5294 27.2962 63.9631 27.268 63.7334 27.2397V29.9138C64.2008 29.9732 64.6729 30.0014 65.1435 29.9999V29.9821ZM52.5768 21.4623C50.5988 21.4623 49.3434 20.5709 49.3434 19.222C49.3434 17.8241 50.5541 17.01 52.8687 16.8807L56.9906 16.6386V17.8954C56.8997 19.9663 55.0222 21.5782 52.7985 21.4935C52.7236 21.4905 52.6502 21.4846 52.5768 21.4786V21.4623ZM51.5814 24.1022C53.8258 24.1586 55.9251 23.0697 57.0528 21.2617H57.1294V23.9358H60.5622V12.8607C60.5622 9.64889 57.8042 7.57947 53.5578 7.57947C49.6194 7.57947 46.7066 9.67711 46.5997 12.5606H49.9416C50.3404 11.0944 51.8367 10.1272 53.451 10.2907C55.7193 10.2907 56.9906 11.2756 56.9906 13.088V14.3151L52.3647 14.5721C48.0577 14.8143 45.7288 16.4558 45.7288 19.3111C45.7256 22.2066 48.1311 24.1185 51.5798 24.1185L51.5814 24.1022ZM31.6881 4.59195H35.9632C39.1822 4.59195 41.0215 6.19044 41.0215 9.00266C41.0215 11.8149 39.1822 13.4267 35.9488 13.4267H31.6881V4.59195ZM27.9794 1.6802V23.9313H31.6881V16.3459H36.823C41.0055 16.5554 44.5771 13.5679 44.802 9.67266C44.8148 9.45131 44.8163 9.23144 44.8068 9.01009C45.0046 5.15796 41.8127 1.8867 37.6764 1.701C37.4323 1.6906 37.1899 1.69208 36.9458 1.70248L27.9794 1.6802ZM15.6695 5.83241C13.5384 5.71802 11.7151 6.95998 10.7038 6.95998C9.69243 6.95998 8.12917 5.89035 6.44308 5.92006C4.20985 5.97355 2.17442 7.12488 1.0945 8.94621C-1.20414 12.629 0.496311 18.0811 2.71837 21.0775C3.80628 22.5631 5.11112 24.1898 6.82592 24.1319C8.4498 24.0754 9.09424 23.1469 11.0563 23.1469C13.0183 23.1469 13.6006 24.1319 15.317 24.1022C17.094 24.0739 18.2138 22.6166 19.3049 21.131C20.0738 20.0792 20.6719 18.9279 21.0819 17.7141C18.9874 16.8614 17.63 14.9405 17.6188 12.8117C17.6507 10.9339 18.7067 9.20173 20.4231 8.21678C19.3288 6.76982 17.5725 5.88144 15.6727 5.81904L15.6695 5.83241ZM14.3391 3.86698C13.406 4.96186 11.9783 5.59026 10.4772 5.56501C10.3815 4.20124 10.8792 2.85976 11.8571 1.84064C12.8301 0.788847 14.202 0.129246 15.6855 0C15.7907 1.40239 15.3074 2.78696 14.336 3.86253" fill="white"/>
</svg>
