<svg width="26" height="28" viewBox="0 0 26 28" fill="none" xmlns="http://www.w3.org/2000/svg">
<path d="M12.9998 7.57482C13.3977 7.57482 13.7793 7.41675 14.0607 7.13539C14.342 6.85403 14.5001 6.47242 14.5001 6.07452C14.5001 5.67661 14.342 5.29501 14.0607 5.01365C13.7793 4.73229 13.3977 4.57422 12.9998 4.57422C12.6019 4.57422 12.2203 4.73229 11.9389 5.01365C11.6576 5.29501 11.4995 5.67661 11.4995 6.07452C11.4995 6.47242 11.6576 6.85403 11.9389 7.13539C12.2203 7.41675 12.6019 7.57482 12.9998 7.57482Z" fill="white"/>
<path d="M23.8 21.0118V11.3998H23.9674C25.5748 11.3998 26.2354 9.33519 24.9214 8.40459L14.3896 0.930992C13.9838 0.642992 13.4985 0.488281 13.0009 0.488281C12.5033 0.488281 12.018 0.642992 11.6122 0.930992L1.07862 8.40459C-0.229981 9.33519 0.425219 11.3998 2.03262 11.3998H2.20002V21.0118C1.11822 21.7066 0.400019 22.9198 0.400019 24.3004V26.6998C0.400019 26.9385 0.49484 27.1674 0.663623 27.3362C0.832406 27.505 1.06132 27.5998 1.30002 27.5998H24.7C24.9387 27.5998 25.1676 27.505 25.3364 27.3362C25.5052 27.1674 25.6 26.9385 25.6 26.6998V24.3004C25.6 22.9198 24.8836 21.7066 23.8 21.0136V21.0118ZM12.6544 2.39979C12.7557 2.32803 12.8768 2.28949 13.0009 2.28949C13.1251 2.28949 13.2461 2.32803 13.3474 2.39979L23.4976 9.59979H2.50422L12.6544 2.39979ZM22 11.3998V20.4106C21.9006 20.4032 21.8009 20.3996 21.7012 20.3998H18.4V11.3998H22ZM4.00002 20.4106V11.3998H7.60002V20.3998H4.30062C4.20032 20.3996 4.10005 20.4032 4.00002 20.4106ZM4.30062 22.1998H21.7012C22.8604 22.1998 23.8 23.1394 23.8 24.3004V25.7998H2.20002V24.3004C2.20002 23.1394 3.14142 22.1998 4.30062 22.1998ZM12.1 20.3998H9.40002V11.3998H12.1V20.3998ZM13.9 20.3998V11.3998H16.6V20.3998H13.9Z" fill="white"/>
</svg>
