<svg width="30" height="22" viewBox="0 0 30 22" fill="none" xmlns="http://www.w3.org/2000/svg">
<path d="M21.2997 16.4004C21.061 16.4004 20.832 16.4952 20.6633 16.664C20.4945 16.8328 20.3997 17.0617 20.3997 17.3004C20.3997 17.5391 20.4945 17.768 20.6633 17.9368C20.832 18.1056 21.061 18.2004 21.2997 18.2004H24.8997C25.1384 18.2004 25.3673 18.1056 25.5361 17.9368C25.7048 17.768 25.7997 17.5391 25.7997 17.3004C25.7997 17.0617 25.7048 16.8328 25.5361 16.664C25.3673 16.4952 25.1384 16.4004 24.8997 16.4004H21.2997Z" fill="white"/>
<path d="M0.599609 4.7002C0.599609 3.50672 1.07372 2.36213 1.91763 1.51821C2.76154 0.674301 3.90613 0.200195 5.09961 0.200195H24.8996C26.0931 0.200195 27.2377 0.674301 28.0816 1.51821C28.9255 2.36213 29.3996 3.50672 29.3996 4.7002V17.3002C29.3996 18.4937 28.9255 19.6383 28.0816 20.4822C27.2377 21.3261 26.0931 21.8002 24.8996 21.8002H5.09961C3.90613 21.8002 2.76154 21.3261 1.91763 20.4822C1.07372 19.6383 0.599609 18.4937 0.599609 17.3002V4.7002ZM2.39961 17.3002C2.39961 18.0163 2.68407 18.703 3.19042 19.2094C3.69677 19.7157 4.38352 20.0002 5.09961 20.0002H24.8996C25.6157 20.0002 26.3024 19.7157 26.8088 19.2094C27.3151 18.703 27.5996 18.0163 27.5996 17.3002V9.2002H2.39961V17.3002ZM27.5996 4.7002C27.5996 3.98411 27.3151 3.29736 26.8088 2.79101C26.3024 2.28466 25.6157 2.0002 24.8996 2.0002H5.09961C4.38352 2.0002 3.69677 2.28466 3.19042 2.79101C2.68407 3.29736 2.39961 3.98411 2.39961 4.7002V7.4002H27.5996V4.7002Z" fill="white"/>
</svg>
