<svg width="77" height="30" viewBox="0 0 77 30" fill="none" xmlns="http://www.w3.org/2000/svg">
<path d="M35.9742 14.6592V23.453H33.165V1.73632H40.6155C41.5048 1.71787 42.389 1.87451 43.217 2.19719C44.0451 2.51987 44.8006 3.00221 45.44 3.61637C46.0858 4.19324 46.5997 4.90071 46.9473 5.69123C47.2949 6.48175 47.4681 7.337 47.4552 8.19951C47.4737 9.06663 47.3032 9.92748 46.9554 10.723C46.6075 11.5186 46.0906 12.2301 45.44 12.8087C44.1371 14.0424 42.529 14.6587 40.6155 14.6575H35.9742V14.6592ZM35.9742 4.40997V11.9908H40.6853C41.2017 12.006 41.7157 11.914 42.1943 11.7206C42.673 11.5273 43.1057 11.2369 43.4648 10.868C43.8221 10.523 44.106 10.1105 44.2999 9.65466C44.4939 9.19885 44.5938 8.70906 44.5938 8.21424C44.5938 7.71942 44.4939 7.22963 44.2999 6.77382C44.106 6.31801 43.8221 5.90545 43.4648 5.56052C43.1102 5.18383 42.679 4.8863 42.1998 4.68764C41.7206 4.48899 41.2043 4.39375 40.6853 4.40824H35.9742V4.40997Z" fill="#E4E5E7"/>
<path d="M53.9351 8.10693C56.0114 8.10693 57.6504 8.65795 58.852 9.75999C60.0536 10.862 60.6538 12.373 60.6527 14.2929V23.4505H57.9656V21.3885H57.8435C56.6803 23.0866 55.1332 23.9357 53.2022 23.9357C51.554 23.9357 50.175 23.4505 49.0652 22.4802C48.5327 22.0348 48.1069 21.477 47.8189 20.8476C47.531 20.2181 47.3881 19.5327 47.4007 18.8414C47.4007 17.3038 47.9858 16.0811 49.156 15.1731C50.3262 14.2652 51.8884 13.81 53.8426 13.8077C55.5107 13.8077 56.8844 14.1109 57.9639 14.7174V14.0798C57.9671 13.6085 57.8646 13.1424 57.6639 12.7153C57.4632 12.2882 57.1693 11.9109 56.8036 11.6106C56.0607 10.945 55.0926 10.5818 54.0921 10.5934C52.5229 10.5934 51.2812 11.2507 50.3669 12.5653L47.8927 11.018C49.2537 9.07728 51.2678 8.10693 53.9351 8.10693ZM50.3006 18.902C50.2987 19.2571 50.3823 19.6074 50.5443 19.9239C50.7064 20.2404 50.9423 20.5138 51.2323 20.7214C51.8536 21.2068 52.6248 21.4639 53.4151 21.4492C54.6005 21.4472 55.7368 20.9786 56.575 20.1461C57.5056 19.2763 57.9709 18.2557 57.9709 17.0844C57.095 16.3913 55.8736 16.0447 54.3067 16.0447C53.1656 16.0447 52.2141 16.3179 51.4522 16.8643C50.6827 17.4188 50.3006 18.0928 50.3006 18.902Z" fill="#E4E5E7"/>
<path d="M76.0768 8.59229L66.6966 30.0005H63.7967L67.2776 22.5098L61.1096 8.59229H64.1631L68.6211 19.2661H68.6822L73.0181 8.59229H76.0768Z" fill="#E4E5E7"/>
<path d="M24.627 12.7609C24.6281 11.9107 24.5557 11.062 24.4106 10.2241H12.5632V15.0291H19.3489C19.21 15.7965 18.9161 16.528 18.4849 17.1796C18.0537 17.8312 17.4941 18.3893 16.8398 18.8203V21.9393H20.8896C23.2608 19.7682 24.627 16.5574 24.627 12.7609Z" fill="#4285F4"/>
<path d="M12.5619 24.9519C15.9521 24.9519 18.8067 23.8464 20.8883 21.9404L16.8385 18.8214C15.7113 19.5803 14.2596 20.0135 12.5619 20.0135C9.28512 20.0135 6.50386 17.8199 5.5093 14.8638H1.3374V18.078C2.38302 20.1443 3.98637 21.8813 5.96844 23.0951C7.95051 24.3089 10.2333 24.9518 12.5619 24.9519Z" fill="#34A853"/>
<path d="M5.50961 14.8643C4.98383 13.3153 4.98383 11.6378 5.50961 10.0888V6.87451H1.33772C0.458102 8.61274 0 10.5312 0 12.4765C0 14.4219 0.458102 16.3403 1.33772 18.0785L5.50961 14.8643Z" fill="#FBBC04"/>
<path d="M12.5619 4.93918C14.3535 4.91011 16.0846 5.58234 17.3812 6.81056L20.9668 3.24974C18.6931 1.12898 15.681 -0.0353598 12.5619 0.000818533C10.2333 0.000923929 7.95051 0.643767 5.96844 1.85758C3.98637 3.07139 2.38302 4.8084 1.3374 6.87467L5.5093 10.0889C6.50386 7.13285 9.28512 4.93918 12.5619 4.93918Z" fill="#EA4335"/>
</svg>
