<svg width="31" height="36" viewBox="0 0 31 36" fill="none" xmlns="http://www.w3.org/2000/svg">
<path d="M27.7226 9.04834C27.7226 9.24085 27.7226 9.43337 27.5301 9.62588C25.99 17.3264 20.9847 19.829 14.4392 19.829H11.1665C10.3965 19.829 9.62644 20.4066 9.62644 21.1766L7.89381 31.9573L7.50879 35.0375C7.50879 35.615 7.8938 36.0001 8.27883 36.0001H14.2467C15.0168 36.0001 15.5943 35.4225 15.5943 34.845V34.46L16.7494 27.5295V27.1445C16.9419 26.3744 17.5194 25.9894 18.097 25.9894H19.0595C24.8349 25.9894 29.2627 23.6793 30.4177 16.9413C30.9953 14.0537 30.6103 11.7435 29.2627 10.2034C28.8777 9.81839 28.3001 9.43336 27.7226 9.04834Z" fill="#2199D6"/>
<path d="M26.183 8.47011C25.9905 8.47011 25.798 8.2776 25.413 8.2776C25.2204 8.2776 24.8354 8.08509 24.6429 8.08509C23.6803 7.89258 22.7178 7.89258 21.7552 7.89258H12.8997C12.7071 7.89258 12.5146 7.89258 12.3221 8.08509C11.9371 8.2776 11.5521 8.66262 11.5521 9.04765L9.62695 20.9834V21.3684C9.81947 20.5984 10.397 20.0209 11.167 20.0209H14.4398C20.9852 20.0209 25.9905 17.3257 27.5306 9.8177C27.5306 9.62519 27.5306 9.43268 27.7231 9.24017C27.3381 9.04765 26.953 8.85514 26.568 8.66263C26.3755 8.47012 26.183 8.47011 26.183 8.47011Z" fill="#252C5E"/>
<path d="M11.5507 9.04807C11.5507 8.66304 11.9357 8.27802 12.3208 8.08551C12.5133 8.08551 12.7058 7.893 12.8983 7.893H21.7539C22.7164 7.893 23.8715 7.893 24.6415 8.08551C24.8341 8.08551 25.2191 8.08551 25.4116 8.27803C25.6041 8.27803 25.7966 8.47053 26.1817 8.47053C26.3742 8.47053 26.3742 8.47054 26.5667 8.66305C26.9517 8.85556 27.3367 9.04807 27.7218 9.24059C28.1068 6.3529 27.7217 4.42778 26.1817 2.69517C24.449 0.770045 21.3688 0 17.5186 0H6.16039C5.39034 0 4.62028 0.577531 4.62028 1.34758L0 30.9945C0 31.572 0.385024 32.1495 0.962561 32.1495H7.89299L9.62561 20.9838L11.5507 9.04807Z" fill="#2C3E8B"/>
</svg>
