<svg width="36" height="36" viewBox="0 0 36 36" fill="none" xmlns="http://www.w3.org/2000/svg">
<path d="M27.6747 22.636C28.2726 22.8923 28.5288 23.7465 28.5288 24.1736C28.6143 24.8569 28.4434 25.1986 28.1872 25.1986C27.9309 25.1986 27.5892 24.9424 27.2476 24.3444C26.9059 23.7465 26.7351 23.1486 26.9059 22.8069C27.1621 22.636 27.4184 22.5506 27.6747 22.636Z" fill="#F28A1A"/>
<path d="M24.1721 25.2832C24.5137 25.2832 24.9408 25.454 25.3679 25.7957C26.0513 26.3936 26.3075 27.077 25.9659 27.5895C25.795 27.8458 25.3679 28.0166 25.0262 28.0166C24.5992 28.0166 24.1721 27.8458 23.9158 27.5895C23.2325 26.9916 23.0616 26.1374 23.4887 25.6249C23.5741 25.454 23.8304 25.2832 24.1721 25.2832Z" fill="#F28A1A"/>
<path d="M16.0587 32.032C7.17517 32.032 0 24.8568 0 16.0587C0 7.26059 7.17517 0 16.0587 0C24.9423 0 32.1174 7.17517 32.1174 16.0587C32.1174 19.0484 31.2632 21.8672 29.8965 24.2589C29.8111 24.3443 29.7257 24.3443 29.7257 24.1735C29.1278 20.2442 26.736 18.1088 23.3193 17.4254C22.9776 17.34 22.9776 17.1692 23.4047 17.1692C24.5152 17.0837 25.9673 17.0837 26.8215 17.2546C26.9069 16.8275 26.9069 16.4004 26.9069 16.0587C26.9069 10.2502 22.1234 5.46679 16.315 5.46679C10.5065 5.46679 5.72305 10.2502 5.72305 16.0587C5.72305 21.8672 10.5065 26.6506 16.315 26.6506H16.8275C16.6566 25.711 16.5712 24.7714 16.6566 23.7464C16.6566 23.063 16.8275 22.9776 17.0837 23.4901C18.5359 26.0527 20.6713 28.2736 24.7714 29.2132C28.1027 29.982 31.4341 30.8361 35.1071 35.3633C35.4487 35.7904 34.9362 36.2175 34.5946 35.8758C30.9216 32.6299 27.5902 31.5195 24.5152 31.5195C20.6713 31.6049 18.365 32.032 16.0587 32.032Z" fill="#F28A1A"/>
</svg>
