<svg width="18" height="18" viewBox="0 0 18 18" fill="none" xmlns="http://www.w3.org/2000/svg">
<path d="M9.0002 0C7.20999 0 5.4931 0.711159 4.22723 1.97703C2.96136 3.2429 2.2502 4.95979 2.2502 6.75V10.3515L0.804203 13.9725C0.758913 14.0862 0.742145 14.2093 0.755361 14.331C0.768578 14.4527 0.811377 14.5693 0.880024 14.6706C0.948671 14.772 1.04108 14.855 1.14918 14.9124C1.25729 14.9698 1.3778 14.9999 1.5002 15H6.0002C6.0002 16.662 7.3382 18 9.0002 18C10.6622 18 12.0002 16.662 12.0002 15H16.5002C16.6226 14.9999 16.7431 14.9698 16.8512 14.9124C16.9593 14.855 17.0517 14.772 17.1204 14.6706C17.189 14.5693 17.2318 14.4527 17.245 14.331C17.2583 14.2093 17.2415 14.0862 17.1962 13.9725L15.7502 10.35V6.75C15.7502 4.95979 15.039 3.2429 13.7732 1.97703C12.5073 0.711159 10.7904 0 9.0002 0ZM10.5002 15C10.5002 15.834 9.8342 16.5 9.0002 16.5C8.1662 16.5 7.5002 15.834 7.5002 15H10.5002ZM3.7502 6.75C3.7502 5.35761 4.30333 4.02226 5.28789 3.03769C6.27246 2.05312 7.60782 1.5 9.0002 1.5C10.3926 1.5 11.7279 2.05312 12.7125 3.03769C13.6971 4.02226 14.2502 5.35761 14.2502 6.75V10.497C14.2504 10.5921 14.2688 10.6863 14.3042 10.7745L15.3932 13.5H2.6072L3.6962 10.7745C3.73163 10.6863 3.74996 10.5921 3.7502 10.497V6.75Z" fill="white"/>
</svg>
