<svg width="16" height="20" viewBox="0 0 16 20" fill="none" xmlns="http://www.w3.org/2000/svg">
<path d="M3.19981 10.6004C3.19981 10.4413 3.26302 10.2886 3.37554 10.1761C3.48806 10.0636 3.64068 10.0004 3.79981 10.0004C3.95894 10.0004 4.11155 10.0636 4.22407 10.1761C4.33659 10.2886 4.39981 10.4413 4.39981 10.6004C4.39981 10.7595 4.33659 10.9121 4.22407 11.0247C4.11155 11.1372 3.95894 11.2004 3.79981 11.2004C3.64068 11.2004 3.48806 11.1372 3.37554 11.0247C3.26302 10.9121 3.19981 10.7595 3.19981 10.6004ZM3.79981 12.4004C3.64068 12.4004 3.48806 12.4636 3.37554 12.5761C3.26302 12.6886 3.19981 12.8413 3.19981 13.0004C3.19981 13.1595 3.26302 13.3121 3.37554 13.4247C3.48806 13.5372 3.64068 13.6004 3.79981 13.6004C3.95894 13.6004 4.11155 13.5372 4.22407 13.4247C4.33659 13.3121 4.39981 13.1595 4.39981 13.0004C4.39981 12.8413 4.33659 12.6886 4.22407 12.5761C4.11155 12.4636 3.95894 12.4004 3.79981 12.4004ZM3.19981 15.4004C3.19981 15.2413 3.26302 15.0886 3.37554 14.9761C3.48806 14.8636 3.64068 14.8004 3.79981 14.8004C3.95894 14.8004 4.11155 14.8636 4.22407 14.9761C4.33659 15.0886 4.39981 15.2413 4.39981 15.4004C4.39981 15.5595 4.33659 15.7121 4.22407 15.8247C4.11155 15.9372 3.95894 16.0004 3.79981 16.0004C3.64068 16.0004 3.48806 15.9372 3.37554 15.8247C3.26302 15.7121 3.19981 15.5595 3.19981 15.4004ZM6.19981 10.0004C6.04068 10.0004 5.88806 10.0636 5.77554 10.1761C5.66302 10.2886 5.59981 10.4413 5.59981 10.6004C5.59981 10.7595 5.66302 10.9121 5.77554 11.0247C5.88806 11.1372 6.04068 11.2004 6.19981 11.2004H12.1998C12.3589 11.2004 12.5115 11.1372 12.6241 11.0247C12.7366 10.9121 12.7998 10.7595 12.7998 10.6004C12.7998 10.4413 12.7366 10.2886 12.6241 10.1761C12.5115 10.0636 12.3589 10.0004 12.1998 10.0004H6.19981ZM5.59981 13.0004C5.59981 12.8413 5.66302 12.6886 5.77554 12.5761C5.88806 12.4636 6.04068 12.4004 6.19981 12.4004H12.1998C12.3589 12.4004 12.5115 12.4636 12.6241 12.5761C12.7366 12.6886 12.7998 12.8413 12.7998 13.0004C12.7998 13.1595 12.7366 13.3121 12.6241 13.4247C12.5115 13.5372 12.3589 13.6004 12.1998 13.6004H6.19981C6.04068 13.6004 5.88806 13.5372 5.77554 13.4247C5.66302 13.3121 5.59981 13.1595 5.59981 13.0004ZM6.19981 14.8004C6.04068 14.8004 5.88806 14.8636 5.77554 14.9761C5.66302 15.0886 5.59981 15.2413 5.59981 15.4004C5.59981 15.5595 5.66302 15.7121 5.77554 15.8247C5.88806 15.9372 6.04068 16.0004 6.19981 16.0004H12.1998C12.3589 16.0004 12.5115 15.9372 12.6241 15.8247C12.7366 15.7121 12.7998 15.5595 12.7998 15.4004C12.7998 15.2413 12.7366 15.0886 12.6241 14.9761C12.5115 14.8636 12.3589 14.8004 12.1998 14.8004H6.19981ZM3.19981 0.400391C2.56329 0.400391 1.95284 0.653247 1.50275 1.10333C1.05266 1.55342 0.799805 2.16387 0.799805 2.80039V17.2004C0.799805 17.8369 1.05266 18.4474 1.50275 18.8974C1.95284 19.3475 2.56329 19.6004 3.19981 19.6004H12.7998C13.4363 19.6004 14.0468 19.3475 14.4969 18.8974C14.9469 18.4474 15.1998 17.8369 15.1998 17.2004V6.89719C15.1994 6.41996 15.0095 5.96243 14.6718 5.62519L9.97501 0.927191C9.63757 0.589969 9.18006 0.400492 8.70301 0.400391H3.19981ZM1.9998 2.80039C1.9998 2.48213 2.12623 2.17691 2.35128 1.95186C2.57632 1.72682 2.88155 1.60039 3.19981 1.60039H7.99981V5.80039C7.99981 6.27778 8.18945 6.73562 8.52701 7.07318C8.86458 7.41075 9.32242 7.60039 9.79981 7.60039H13.9998V17.2004C13.9998 17.5187 13.8734 17.8239 13.6483 18.0489C13.4233 18.274 13.1181 18.4004 12.7998 18.4004H3.19981C2.88155 18.4004 2.57632 18.274 2.35128 18.0489C2.12623 17.8239 1.9998 17.5187 1.9998 17.2004V2.80039ZM13.7514 6.40039H9.79981C9.64068 6.40039 9.48806 6.33718 9.37554 6.22465C9.26302 6.11213 9.19981 5.95952 9.19981 5.80039V1.84879L13.7514 6.40039Z" fill="white"/>
</svg>
