<svg width="19" height="19" viewBox="0 0 19 19" fill="none" xmlns="http://www.w3.org/2000/svg">
<path d="M7.99987 0.75C9.36996 0.749829 10.7121 1.13789 11.8707 1.86922C13.0292 2.60054 13.9569 3.64519 14.5461 4.88212C15.1353 6.11905 15.362 7.49762 15.1998 8.85809C15.0376 10.2186 14.4933 11.5052 13.6299 12.569L18.5299 17.469C18.6644 17.6027 18.7433 17.7823 18.7507 17.9718C18.7581 18.1613 18.6934 18.3466 18.5697 18.4903C18.446 18.6341 18.2725 18.7256 18.084 18.7465C17.8955 18.7674 17.7061 18.7161 17.5539 18.603L17.4699 18.53L12.5689 13.63C11.6677 14.3611 10.6043 14.8653 9.46789 15.1C8.33148 15.3348 7.15532 15.2934 6.03824 14.9793C4.92116 14.6651 3.89581 14.0874 3.04836 13.2947C2.20091 12.502 1.55611 11.5175 1.16816 10.4238C0.780203 9.33021 0.660431 8.15943 0.818904 7.00989C0.977378 5.86035 1.40947 4.76565 2.07886 3.81778C2.74825 2.8699 3.63539 2.09655 4.66571 1.56272C5.69604 1.02889 6.83946 0.750178 7.99987 0.75ZM7.99987 2.25C7.24476 2.25 6.49706 2.39873 5.79944 2.68769C5.10181 2.97666 4.46794 3.4002 3.934 3.93414C3.40006 4.46807 2.97652 5.10195 2.68756 5.79957C2.39859 6.49719 2.24987 7.2449 2.24987 8C2.24987 8.7551 2.39859 9.50281 2.68756 10.2004C2.97652 10.8981 3.40006 11.5319 3.934 12.0659C4.46794 12.5998 5.10181 13.0233 5.79944 13.3123C6.49706 13.6013 7.24476 13.75 7.99987 13.75C9.52486 13.75 10.9874 13.1442 12.0657 12.0659C13.1441 10.9875 13.7499 9.525 13.7499 8C13.7499 6.47501 13.1441 5.01247 12.0657 3.93414C10.9874 2.8558 9.52486 2.25 7.99987 2.25Z" fill="white"/>
</svg>
