<svg width="10" height="7" viewBox="0 0 10 7" fill="none" xmlns="http://www.w3.org/2000/svg">
<path d="M5 2L5.53033 1.46967L5 0.939341L4.46967 1.46967L5 2ZM0.46967 5.46967C0.176777 5.76256 0.176777 6.23744 0.46967 6.53033C0.762563 6.82322 1.23744 6.82322 1.53033 6.53033L0.46967 5.46967ZM8.46967 6.53033C8.76256 6.82322 9.23744 6.82322 9.53033 6.53033C9.82322 6.23744 9.82322 5.76256 9.53033 5.46967L8.46967 6.53033ZM4.46967 1.46967L0.46967 5.46967L1.53033 6.53033L5.53033 2.53033L4.46967 1.46967ZM9.53033 5.46967L5.53033 1.46967L4.46967 2.53033L8.46967 6.53033L9.53033 5.46967Z" fill="#828282"/>
</svg>
