<svg width="16" height="14" viewBox="0 0 16 14" fill="none" xmlns="http://www.w3.org/2000/svg">
<path d="M0.666992 1H10.667V9.66667H0.666992V1Z" stroke="#828282" stroke-width="1.33333" stroke-linecap="round" stroke-linejoin="round"/>
<path d="M10.667 4.33301H13.3337L15.3337 6.33301V9.66634H10.667V4.33301Z" stroke="#828282" stroke-width="1.33333" stroke-linecap="round" stroke-linejoin="round"/>
<path d="M3.66667 13.0003C4.58714 13.0003 5.33333 12.2541 5.33333 11.3337C5.33333 10.4132 4.58714 9.66699 3.66667 9.66699C2.74619 9.66699 2 10.4132 2 11.3337C2 12.2541 2.74619 13.0003 3.66667 13.0003Z" stroke="#828282" stroke-width="1.33333" stroke-linecap="round" stroke-linejoin="round"/>
<path d="M12.3337 13.0003C13.2541 13.0003 14.0003 12.2541 14.0003 11.3337C14.0003 10.4132 13.2541 9.66699 12.3337 9.66699C11.4132 9.66699 10.667 10.4132 10.667 11.3337C10.667 12.2541 11.4132 13.0003 12.3337 13.0003Z" stroke="#828282" stroke-width="1.33333" stroke-linecap="round" stroke-linejoin="round"/>
</svg>
