<svg width="12" height="8" viewBox="0 0 12 8" fill="none" xmlns="http://www.w3.org/2000/svg">
<path d="M7 6.66667C7.13261 6.66667 7.25979 6.71935 7.35355 6.81311C7.44732 6.90688 7.5 7.03406 7.5 7.16667C7.5 7.29927 7.44732 7.42645 7.35355 7.52022C7.25979 7.61399 7.13261 7.66667 7 7.66667H5C4.86739 7.66667 4.74022 7.61399 4.64645 7.52022C4.55268 7.42645 4.5 7.29927 4.5 7.16667C4.5 7.03406 4.55268 6.90688 4.64645 6.81311C4.74022 6.71935 4.86739 6.66667 5 6.66667H7ZM9 3.33333C9.13261 3.33333 9.25979 3.38601 9.35355 3.47978C9.44732 3.57355 9.5 3.70073 9.5 3.83333C9.5 3.96594 9.44732 4.09312 9.35355 4.18689C9.25979 4.28065 9.13261 4.33333 9 4.33333H3C2.86739 4.33333 2.74021 4.28065 2.64645 4.18689C2.55268 4.09312 2.5 3.96594 2.5 3.83333C2.5 3.70073 2.55268 3.57355 2.64645 3.47978C2.74021 3.38601 2.86739 3.33333 3 3.33333H9ZM11 0C11.1326 0 11.2598 0.0526784 11.3536 0.146447C11.4473 0.240215 11.5 0.367392 11.5 0.5C11.5 0.632608 11.4473 0.759785 11.3536 0.853553C11.2598 0.947322 11.1326 1 11 1H1C0.867392 1 0.740215 0.947322 0.646447 0.853553C0.552678 0.759785 0.5 0.632608 0.5 0.5C0.5 0.367392 0.552678 0.240215 0.646447 0.146447C0.740215 0.0526784 0.867392 0 1 0H11Z" fill="white" fill-opacity="0.4"/>
</svg>
