<svg width="14" height="12" viewBox="0 0 14 12" fill="none" xmlns="http://www.w3.org/2000/svg">
<path d="M2.57101 0.857178H11.4282C11.9025 0.857147 12.3589 1.03864 12.7037 1.36442C13.0485 1.6902 13.2556 2.13557 13.2824 2.60918L13.2853 2.71432V9.28575C13.2853 9.76011 13.1038 10.2165 12.7781 10.5613C12.4523 10.9061 12.0069 11.1132 11.5333 11.14L11.4282 11.1429H2.57101C2.09665 11.1429 1.64025 10.9614 1.29545 10.6357C0.950648 10.3099 0.743581 9.8645 0.716724 9.39089L0.713867 9.28575V2.71432C0.713836 2.23996 0.895327 1.78356 1.22111 1.43876C1.54689 1.09396 1.99226 0.886891 2.46587 0.860035L2.57101 0.857178H11.4282H2.57101ZM12.4282 4.23146L7.1973 6.95146C7.14663 6.97779 7.09121 6.99373 7.03429 6.99835C6.97738 7.00296 6.92011 6.99615 6.86587 6.97832L6.80187 6.95146L1.57101 4.23146V9.28575C1.57102 9.53672 1.66539 9.7785 1.8354 9.96312C2.0054 10.1477 2.23861 10.2617 2.48872 10.2823L2.57101 10.2857H11.4282C11.6792 10.2857 11.9211 10.1913 12.1057 10.0212C12.2903 9.85103 12.4042 9.61768 12.4247 9.36746L12.4282 9.28575V4.23146ZM11.4282 1.71432H2.57101C2.32004 1.71433 2.07826 1.8087 1.89364 1.97871C1.70903 2.14871 1.59509 2.38192 1.57444 2.63203L1.57101 2.71432V3.26518L6.99958 6.08804L12.4282 3.26518V2.71432C12.4281 2.46326 12.3337 2.2214 12.1636 2.03677C11.9934 1.85215 11.7601 1.73826 11.5099 1.71775L11.4282 1.71432Z" fill="white" fill-opacity="0.4"/>
</svg>
