<svg width="20" height="20" viewBox="0 0 20 20" fill="none" xmlns="http://www.w3.org/2000/svg">
<g clip-path="url(#clip0)">
<path fill-rule="evenodd" clip-rule="evenodd" d="M14.0363 5.45551C13.0038 4.47076 11.6259 3.93429 10.2002 3.95634C7.59134 3.95634 5.37566 5.71638 4.58564 8.08638C4.16676 9.32834 4.16676 10.6732 4.58564 11.9152H4.58931C5.38299 14.2815 7.595 16.0416 10.2039 16.0416C11.5505 16.0416 12.7067 15.6971 13.6027 15.0887V15.0863C14.6573 14.3881 15.3775 13.2895 15.6016 12.0475H10.2002V8.19669H19.6325C19.7501 8.86543 19.8052 9.54888 19.8052 10.2287C19.8052 13.2702 18.7182 15.8417 16.8269 17.5833L16.8289 17.5849C15.1717 19.1134 12.8972 19.999 10.2002 19.999C6.41918 19.999 2.96153 17.8678 1.26394 14.491C-0.154389 11.6653 -0.154385 8.3363 1.26395 5.51066C2.96154 2.13017 6.41918 -0.0010351 10.2002 -0.0010351C12.6841 -0.0304307 15.0835 0.902878 16.8913 2.60047L14.0363 5.45551Z" fill="white"/>
</g>
<defs>
<clipPath id="clip0">
<rect width="20" height="20" fill="white"/>
</clipPath>
</defs>
</svg>
