<svg width="10" height="13" viewBox="0 0 10 13" fill="none" xmlns="http://www.w3.org/2000/svg">
<path d="M4.836 0.505L5 0.5C5.63472 0.499902 6.24571 0.741233 6.70905 1.17504C7.17238 1.60885 7.45336 2.20265 7.495 2.836L7.5 3V4H8.5C8.89782 4 9.27936 4.15804 9.56066 4.43934C9.84196 4.72064 10 5.10218 10 5.5V11.5C10 11.8978 9.84196 12.2794 9.56066 12.5607C9.27936 12.842 8.89782 13 8.5 13H1.5C1.10218 13 0.720644 12.842 0.43934 12.5607C0.158035 12.2794 0 11.8978 0 11.5V5.5C0 5.10218 0.158035 4.72064 0.43934 4.43934C0.720644 4.15804 1.10218 4 1.5 4H2.5V3C2.4999 2.36528 2.74123 1.75429 3.17504 1.29095C3.60885 0.827621 4.20265 0.546638 4.836 0.505ZM8.5 5H1.5C1.36739 5 1.24021 5.05268 1.14645 5.14645C1.05268 5.24021 1 5.36739 1 5.5V11.5C1 11.6326 1.05268 11.7598 1.14645 11.8536C1.24021 11.9473 1.36739 12 1.5 12H8.5C8.63261 12 8.75979 11.9473 8.85355 11.8536C8.94732 11.7598 9 11.6326 9 11.5V5.5C9 5.36739 8.94732 5.24021 8.85355 5.14645C8.75979 5.05268 8.63261 5 8.5 5ZM5.144 1.507L5 1.5C4.62712 1.50002 4.26761 1.63892 3.99158 1.88962C3.71555 2.14032 3.5428 2.48484 3.507 2.856L3.5 3V4H6.5V3C6.49998 2.62712 6.36108 2.26761 6.11038 1.99158C5.85968 1.71555 5.51516 1.5428 5.144 1.507Z" fill="white" fill-opacity="0.4"/>
</svg>
