<svg width="20" height="20" viewBox="0 0 20 20" fill="none" xmlns="http://www.w3.org/2000/svg">
<path fill-rule="evenodd" clip-rule="evenodd" d="M20 10C20 15.5228 15.5228 20 10 20C4.47715 20 0 15.5228 0 10C0 4.47715 4.47715 0 10 0C15.5228 0 20 4.47715 20 10ZM10.3584 7.3823C9.38571 7.78686 7.44178 8.62419 4.52658 9.89429C4.05319 10.0825 3.80521 10.2667 3.78264 10.4468C3.74449 10.7511 4.12559 10.8709 4.64456 11.0341C4.71515 11.0563 4.7883 11.0793 4.86328 11.1037C5.37386 11.2697 6.06069 11.4638 6.41774 11.4716C6.74162 11.4785 7.10311 11.345 7.5022 11.071C10.226 9.23236 11.632 8.30303 11.7203 8.283C11.7825 8.26886 11.8688 8.25109 11.9273 8.30306C11.9858 8.35503 11.98 8.45346 11.9738 8.47986C11.9361 8.64081 10.4401 10.0316 9.66593 10.7513C9.42459 10.9757 9.25339 11.1349 9.2184 11.1712C9.14 11.2526 9.06011 11.3297 8.98332 11.4037C8.50897 11.861 8.15326 12.2039 9.00301 12.7638C9.41136 13.0329 9.73813 13.2555 10.0641 13.4775C10.4201 13.7199 10.7752 13.9617 11.2347 14.2629C11.3517 14.3396 11.4635 14.4193 11.5724 14.497C11.9867 14.7923 12.359 15.0577 12.8188 15.0154C13.086 14.9908 13.3621 14.7395 13.5022 13.9902C13.8335 12.2191 14.4847 8.3819 14.6352 6.80067C14.6484 6.66213 14.6318 6.48483 14.6185 6.407C14.6051 6.32917 14.5773 6.21828 14.4761 6.13619C14.3563 6.03897 14.1714 6.01847 14.0886 6.01993C13.7125 6.02655 13.1355 6.2272 10.3584 7.3823Z" fill="white"/>
</svg>
