<svg width="13" height="14" viewBox="0 0 13 14" fill="none" xmlns="http://www.w3.org/2000/svg">
<path d="M10.1673 0.666016C10.7208 0.665979 11.2532 0.877718 11.6555 1.2578C12.0578 1.63788 12.2993 2.15748 12.3307 2.71002L12.334 2.83268V10.8354C12.334 11.41 12.1057 11.9611 11.6994 12.3674C11.2931 12.7737 10.742 13.002 10.1673 13.002H2.16733C1.61379 13.0022 1.08117 12.7906 0.678755 12.4105C0.276345 12.0304 0.0346723 11.5107 0.00333341 10.958L0 10.8354V2.83268C0 2.25805 0.228273 1.70695 0.634602 1.30062C1.04093 0.894289 1.59203 0.666016 2.16667 0.666016H10.1673ZM5.66667 5.33268L1 5.33335V10.8354L1.00467 10.942C1.03127 11.2318 1.16521 11.5012 1.38019 11.6973C1.59517 11.8934 1.87568 12.0021 2.16667 12.002L5.66667 12.0013V5.33268ZM11.3333 9.33268L6.66667 9.33335V12.0013H10.1667C10.4761 12.0013 10.7728 11.8784 10.9916 11.6596C11.2104 11.4408 11.3333 11.1441 11.3333 10.8347V9.33268ZM10.1673 1.66602L6.66667 1.66535V8.33402L11.3333 8.33335L11.334 2.83335L11.3293 2.72668C11.3027 2.43691 11.1688 2.16754 10.9538 1.97143C10.7388 1.77532 10.4583 1.66663 10.1673 1.66668V1.66602ZM5.66667 1.66535L2.16667 1.66602L2.07133 1.67002C1.77953 1.69411 1.50746 1.82704 1.30912 2.04242C1.11078 2.2578 1.00068 2.53989 1.00067 2.83268L1 4.33402H5.66667V1.66468V1.66535Z" fill="white"/>
</svg>
