<svg width="12" height="12" viewBox="0 0 12 12" fill="none" xmlns="http://www.w3.org/2000/svg">
<path d="M4.79998 0.400024C5.63624 0.399882 6.45524 0.63806 7.161 1.08665C7.86677 1.53525 8.43008 2.17568 8.78494 2.93292C9.1398 3.69016 9.27152 4.53285 9.16466 5.36226C9.0578 6.19167 8.71679 6.97346 8.18158 7.61602L11.4832 10.9168C11.554 10.9874 11.5959 11.0819 11.6005 11.1818C11.6052 11.2817 11.5722 11.3797 11.5082 11.4565C11.4441 11.5333 11.3536 11.5833 11.2545 11.5967C11.1554 11.6101 11.0549 11.5859 10.9728 11.5288L10.9168 11.4832L7.61598 8.18162C7.07294 8.63369 6.42901 8.94833 5.73866 9.09893C5.04831 9.24952 4.33185 9.23165 3.64987 9.04681C2.96789 8.86197 2.34045 8.51561 1.82063 8.03702C1.30081 7.55843 0.903898 6.96169 0.663459 6.29727C0.42302 5.63285 0.34613 4.9203 0.439293 4.21989C0.532455 3.51947 0.79293 2.8518 1.19868 2.27333C1.60444 1.69486 2.14354 1.22262 2.77039 0.896551C3.39724 0.57048 4.09339 0.400169 4.79998 0.400024ZM4.79998 1.20002C3.8452 1.20002 2.92952 1.57931 2.25439 2.25444C1.57926 2.92957 1.19998 3.84525 1.19998 4.80002C1.19998 5.7548 1.57926 6.67048 2.25439 7.34561C2.92952 8.02074 3.8452 8.40002 4.79998 8.40002C5.75476 8.40002 6.67043 8.02074 7.34556 7.34561C8.02069 6.67048 8.39998 5.7548 8.39998 4.80002C8.39998 3.84525 8.02069 2.92957 7.34556 2.25444C6.67043 1.57931 5.75476 1.20002 4.79998 1.20002Z" fill="white"/>
</svg>
