<svg width="14" height="10" viewBox="0 0 14 10" fill="none" xmlns="http://www.w3.org/2000/svg">
<path d="M0.833455 9.0006H9.16679C9.29347 9.00064 9.41542 9.04877 9.50798 9.13525C9.60055 9.22174 9.65684 9.34014 9.66547 9.46652C9.67411 9.59291 9.63445 9.71787 9.5545 9.81614C9.47456 9.91441 9.36029 9.97867 9.23479 9.99594L9.16679 10.0006H0.833455C0.70587 10.0019 0.582617 9.95438 0.488932 9.86776C0.395248 9.78114 0.338222 9.66198 0.329531 9.53469C0.32084 9.40739 0.361143 9.28159 0.442185 9.18304C0.523227 9.0845 0.638878 9.02066 0.765455 9.0046L0.833455 9.0006H9.16679H0.833455ZM0.833455 4.66727H13.1668C13.2935 4.66731 13.4154 4.71543 13.508 4.80192C13.6005 4.88841 13.6568 5.0068 13.6655 5.13319C13.6741 5.25958 13.6344 5.38453 13.5545 5.4828C13.4746 5.58108 13.3603 5.64534 13.2348 5.6626L13.1668 5.66727H0.833455C0.706772 5.66723 0.584827 5.61911 0.49226 5.53262C0.399693 5.44614 0.343405 5.32774 0.334771 5.20135C0.326136 5.07496 0.365798 4.95001 0.445743 4.85174C0.525688 4.75347 0.639955 4.68921 0.765455 4.67194L0.833455 4.66727H13.1668H0.833455ZM0.833455 0.335938H11.1668C11.2935 0.335976 11.4154 0.384101 11.508 0.470586C11.6005 0.557072 11.6568 0.67547 11.6655 0.801858C11.6741 0.928245 11.6344 1.0532 11.5545 1.15147C11.4746 1.24974 11.3603 1.314 11.2348 1.33127L11.1668 1.33594H0.833455C0.706772 1.3359 0.584827 1.28777 0.49226 1.20129C0.399693 1.1148 0.343405 0.996405 0.334771 0.870018C0.326136 0.74363 0.365798 0.618676 0.445743 0.520405C0.525688 0.422134 0.639955 0.357872 0.765455 0.340604L0.833455 0.335938H11.1668H0.833455Z" fill="white"/>
</svg>
